<?xml version="1.0" standalone="no"?>
<!DOCTYPE svg PUBLIC "-//W3C//DTD SVG 20010904//EN"
 "http://www.w3.org/TR/2001/REC-SVG-20010904/DTD/svg10.dtd">
<svg version="1.0" xmlns="http://www.w3.org/2000/svg"
 width="300.000000pt" height="300.000000pt" viewBox="0 0 300.000000 300.000000"
 preserveAspectRatio="xMidYMid meet">
<metadata>
Created by potrace 1.11, written by Peter Selinger 2001-2013
</metadata>
<g transform="translate(0.000000,300.000000) scale(0.100000,-0.100000)"
fill="#000000" stroke="none">
<path d="M341 1968 c-10 -3 -21 -14 -25 -23 -3 -10 -6 -235 -6 -502 0 -266 -2
-488 -5 -493 -3 -6 -2 -10 4 -10 6 0 8 -7 5 -15 -6 -15 23 -52 33 -42 3 4 14
2 24 -3 12 -7 20 -7 24 0 5 8 11 8 20 0 9 -8 15 -8 20 0 4 7 12 7 25 0 13 -7
21 -7 25 0 4 6 12 7 22 1 9 -5 29 -5 45 -1 16 5 30 5 34 -1 3 -5 10 -7 15 -4
17 11 49 14 54 5 9 -15 55 12 60 34 2 12 4 82 3 156 0 74 1 141 1 148 1 8 10
4 25 -10 13 -13 21 -26 19 -30 -2 -5 0 -8 4 -8 5 0 27 -23 48 -52 22 -29 51
-64 64 -78 13 -14 35 -41 49 -60 43 -57 86 -95 107 -95 11 0 25 -4 32 -8 7 -5
18 -5 25 -1 17 11 58 11 58 1 0 -4 6 -5 12 -1 16 10 50 10 66 0 7 -4 18 -4 25
1 13 10 54 10 63 0 3 -3 19 -1 35 3 17 5 31 5 34 -1 4 -5 13 -5 23 0 9 4 30 6
45 4 18 -2 26 0 22 7 -3 5 -2 10 4 10 18 0 5 27 -37 80 -23 29 -42 57 -42 61
0 5 -7 9 -16 9 -8 0 -13 4 -9 9 3 6 -3 18 -13 28 -25 23 -112 131 -112 138 0
3 -8 13 -18 23 -23 24 -48 55 -101 125 -24 31 -48 57 -53 57 -5 0 -7 4 -4 9 3
5 -2 12 -12 16 -16 6 -16 7 1 16 9 6 17 14 17 19 0 5 10 20 23 33 12 14 36 41
52 62 17 20 38 45 48 56 9 10 17 21 17 24 0 3 10 16 23 29 12 13 34 38 49 57
14 19 35 44 45 56 10 12 29 36 43 53 14 17 33 41 42 52 13 15 14 25 7 41 -10
22 -14 22 -212 21 -111 -1 -209 -3 -217 -5 -13 -4 -30 -20 -73 -69 -8 -8 -40
-48 -71 -87 -32 -40 -63 -73 -68 -73 -5 0 -7 -4 -4 -8 3 -5 -11 -26 -30 -47
-30 -34 -42 -34 -34 0 1 6 2 15 2 20 -6 53 -5 155 0 155 4 0 5 6 3 13 -2 6 -6
27 -9 46 -3 18 -9 38 -15 44 -11 11 -331 16 -360 5z"/>
<path d="M2097 1974 c-2 -2 -111 -14 -144 -16 -13 -1 -23 -5 -23 -8 0 -4 -7
-7 -15 -8 -8 -1 -22 -3 -30 -4 -8 -1 -15 -6 -15 -11 0 -5 -7 -7 -15 -3 -8 3
-15 1 -15 -4 0 -6 -5 -10 -11 -10 -17 0 -111 -70 -142 -106 -15 -18 -30 -43
-32 -54 -2 -12 -8 -27 -13 -34 -18 -23 -11 -153 10 -198 20 -41 78 -117 78
-102 0 4 11 -3 25 -16 14 -13 25 -20 25 -16 0 4 7 0 16 -8 8 -9 20 -14 25 -11
5 4 9 2 9 -3 0 -9 55 -26 73 -23 4 0 7 -3 7 -8 0 -5 8 -8 18 -6 9 1 22 0 27
-4 6 -3 17 -7 25 -8 45 -7 117 -15 133 -15 9 0 17 -4 17 -10 0 -7 5 -6 14 1 9
7 17 8 20 2 3 -5 17 -8 31 -6 14 1 28 -2 31 -7 3 -5 12 -7 20 -4 8 3 17 -1 20
-9 4 -8 10 -13 14 -10 4 3 13 -2 20 -9 9 -12 7 -19 -10 -36 -12 -12 -28 -19
-35 -16 -8 3 -17 1 -21 -5 -4 -6 -12 -5 -22 3 -10 9 -13 9 -9 1 6 -9 -10 -11
-60 -8 -73 3 -89 8 -142 39 -36 21 -111 28 -111 11 0 -7 -3 -7 -8 0 -8 12 -61
13 -79 2 -6 -4 -14 -3 -18 2 -5 10 -36 8 -54 -4 -5 -3 -12 -1 -15 4 -7 10 -58
7 -76 -4 -8 -5 -11 -4 -7 3 5 6 0 8 -13 5 -11 -3 -20 -8 -21 -12 -5 -27 -4
-69 2 -81 4 -8 12 -29 19 -46 12 -33 95 -126 104 -116 3 3 6 0 6 -7 0 -7 5 -9
10 -6 6 3 10 2 10 -3 0 -5 19 -17 43 -27 23 -9 51 -21 62 -26 26 -12 61 -20
109 -24 21 -2 43 -10 47 -17 5 -8 9 -8 9 -2 0 12 41 11 59 -1 6 -3 11 -2 11 2
0 10 41 10 58 -1 7 -4 12 -2 12 5 0 7 4 8 13 2 10 -8 32 -10 40 -3 1 1 20 3
42 5 47 4 100 12 135 21 14 3 32 7 40 8 8 1 29 10 46 19 17 9 34 14 36 11 3
-2 11 2 18 11 7 8 19 15 27 15 7 0 16 7 19 15 4 8 10 13 14 10 5 -3 13 3 19
12 6 10 11 14 11 10 0 -4 15 9 33 29 17 21 31 41 30 46 -2 4 1 8 6 8 21 0 45
140 27 152 -7 5 -7 8 2 8 7 0 10 4 7 10 -3 5 -8 19 -11 30 -2 11 -6 30 -9 42
-3 13 -9 24 -15 26 -6 2 -8 7 -5 11 6 10 -60 82 -69 74 -3 -3 -6 -2 -6 4 0 17
-120 69 -185 79 -50 9 -103 21 -113 28 -7 4 -12 2 -12 -5 0 -8 -4 -8 -15 1 -8
7 -15 10 -15 7 0 -3 -13 -2 -30 3 -19 5 -30 5 -30 -1 0 -6 -6 -7 -12 -2 -7 4
-15 8 -18 9 -3 0 -27 4 -54 9 -28 4 -58 15 -67 24 -15 14 -16 18 -3 36 12 16
27 20 85 21 66 1 119 -11 119 -28 0 -5 7 -8 15 -8 8 0 15 -5 15 -11 0 -8 4 -8
14 0 10 9 16 9 21 1 5 -7 11 -8 19 -1 6 5 17 7 23 3 7 -4 41 -5 77 -2 37 3 66
2 66 -1 0 -9 21 -6 38 4 7 5 12 3 12 -3 0 -6 5 -8 12 -4 6 4 33 7 60 7 26 -1
48 2 49 6 4 26 4 71 -1 71 -3 0 -6 9 -7 19 -4 52 -162 191 -233 205 -3 1 -10
4 -16 8 -6 4 -26 10 -45 13 -48 9 -64 13 -64 15 0 5 -213 18 -218 14z"/>
</g>
</svg>
